<svg width="173" height="60" viewBox="0 0 173 60" fill="none" xmlns="http://www.w3.org/2000/svg"><path fill-rule="evenodd" clip-rule="evenodd" d="M55.09 21.3v7.6h-7.74v-7.6h-3.28v18.3h3.28V32h7.74v7.6h3.28V21.3h-3.28z" fill="#1C3553"/><mask id="a" maskUnits="userSpaceOnUse" x="61" y="21" width="18" height="19"><path fill-rule="evenodd" clip-rule="evenodd" d="M78.96 39.8H61.94V21.1h17.02V39.8z" fill="#fff"/></mask><g mask="url(#a)"><path fill-rule="evenodd" clip-rule="evenodd" d="M61.94 30.45c0-1.5.17-2.82.52-3.95a6.62 6.62 0 013.32-4.35c.77-.42 1.53-.7 2.26-.85.74-.14 1.54-.21 2.4-.21.85 0 1.64.07 2.38.21.74.14 1.5.43 2.27.85s1.44.97 2 1.64c.55.68 1 1.58 1.35 2.71.34 1.13.52 2.45.52 3.95 0 1.48-.18 2.8-.52 3.94a7.7 7.7 0 01-1.36 2.71 7.81 7.81 0 01-4.26 2.49 12.56 12.56 0 01-4.78 0 7.8 7.8 0 01-2.26-.85 6.73 6.73 0 01-1.98-1.64c-.55-.66-1-1.57-1.34-2.71a13.6 13.6 0 01-.52-3.94zm3.28-.03c0 1.37.13 2.5.4 3.4a3.9 3.9 0 002.83 2.85 9.35 9.35 0 003.6.1 4.6 4.6 0 001.4-.5c.48-.27.87-.63 1.17-1.1.3-.47.55-1.1.75-1.9.2-.8.3-1.75.3-2.85 0-1.36-.13-2.48-.4-3.38a3.85 3.85 0 00-2.84-2.83 8.02 8.02 0 00-2-.22c-.6 0-1.13.04-1.59.12a4.6 4.6 0 00-1.4.52c-.49.27-.88.63-1.18 1.09-.3.45-.54 1.07-.74 1.87-.2.79-.3 1.73-.3 2.83z" fill="#1C3553"/></g><path fill-rule="evenodd" clip-rule="evenodd" d="M96.74 21.3l-5.27 7.65-5.27-7.65h-3.64v18.3h3.28V26.06l5.63 8.09 5.63-8.1V39.6h3.28V21.3h-3.64zM105.24 21.3v18.3h12.13v-2.97h-8.85V32h7.67v-3.1h-7.67v-4.64h8.85V21.3h-12.13zM121.99 39.6V21.3h6.29c2.82 0 4.96.78 6.42 2.33s2.19 3.83 2.19 6.83c0 2.98-.73 5.25-2.18 6.8-1.46 1.55-3.6 2.33-6.43 2.33h-6.29zm3.28-2.97h3c1.9 0 3.26-.48 4.1-1.44.82-.97 1.24-2.54 1.24-4.73 0-2.2-.42-3.79-1.25-4.75-.83-.97-2.2-1.45-4.09-1.45h-3v12.37zM145.04 21.3l-7.25 18.3h3.53l1.66-4.43h7.71l1.67 4.42h3.52l-7.24-18.29h-3.6zm1.8 3.74l2.7 7.17h-5.44l2.74-7.17zM167.35 21.3l-4.8 7.43-4.83-7.43h-3.96l7.15 10.44v7.85h3.28v-7.85l7.13-10.44h-3.97z" fill="#1C3553"/><mask id="b" maskUnits="userSpaceOnUse" x="0" y="0" width="32" height="40"><path fill-rule="evenodd" clip-rule="evenodd" d="M0 .49v39.1h31.94V.5H0z" fill="#fff"/></mask><g mask="url(#b)"><path fill-rule="evenodd" clip-rule="evenodd" d="M13.63 23.65c0-1.3 1.05-2.35 2.34-2.35h15.88l.1-.1v-5.66c0-.68-.3-1.3-.77-1.72h.01L17.57 1.12h-.01a2.33 2.33 0 00-3.17 0h-.01L.75 13.81h.01A2.35 2.35 0 000 15.54v21.7c0 1.3 1.05 2.35 2.34 2.35h11.29V23.65z" fill="#1C3553"/></g><path fill-rule="evenodd" clip-rule="evenodd" d="M15.97 21.3a2.35 2.35 0 00-2.34 2.35v15.94l18.22-18.3H15.97z" fill="#5BA4FF"/><path d="M44.17 56v-8.53h1.3l1.64 4.55.3.9.3.88h.06l.29-.88.3-.9 1.6-4.55h1.32V56h-1.01v-4.7c0-.37.01-.8.05-1.25l.09-1.27h-.05l-.68 1.94-1.61 4.42h-.72l-1.6-4.42-.68-1.94H45a110.25 110.25 0 01.13 2.53V56h-.97zM56.07 56.16c-.42 0-.82-.08-1.2-.22a3.04 3.04 0 01-.96-.66 3.14 3.14 0 01-.63-1.04c-.16-.4-.24-.87-.24-1.39 0-.52.08-.98.24-1.39.16-.41.37-.76.63-1.05a2.75 2.75 0 011.97-.88c.4 0 .75.07 1.06.2.32.14.59.34.8.6.21.26.38.57.49.94a4.12 4.12 0 01.13 1.83H54.1c.04.68.25 1.21.62 1.61.38.4.88.59 1.48.59.3 0 .58-.05.83-.13.26-.1.51-.22.75-.37l.37.7c-.28.18-.58.33-.92.46-.34.13-.72.2-1.16.2zm-1.99-3.83h3.38c0-.64-.14-1.12-.41-1.45-.27-.34-.65-.5-1.15-.5-.22 0-.44.03-.65.12a2.11 2.11 0 00-.96 1c-.1.24-.17.52-.2.83zM59.96 56v-6.32h1.07V56h-1.07zm.55-7.62a.78.78 0 01-.54-.2.65.65 0 01-.2-.49c0-.2.06-.37.2-.5.15-.12.33-.19.54-.19.2 0 .38.07.52.2a.6.6 0 01.22.5c0 .2-.08.36-.22.49a.73.73 0 01-.52.2zM63.16 56v-6.32h.88l.1.91h.03c.3-.3.62-.55.95-.75.34-.21.73-.31 1.17-.31.67 0 1.16.2 1.46.62.31.42.47 1.03.47 1.85v4h-1.07v-3.86c0-.6-.1-1.03-.29-1.29-.19-.27-.49-.4-.9-.4-.33 0-.63.08-.88.25-.25.16-.53.4-.85.72V56h-1.07zM72.98 56v-8.53h1.07V56h-1.07zM76.29 56v-6.32h.88l.1.91h.03c.28-.3.58-.55.9-.75.33-.21.68-.31 1.06-.31.49 0 .87.1 1.13.32.28.2.49.5.62.88.32-.36.65-.65.98-.87.34-.22.7-.33 1.1-.33.65 0 1.13.2 1.44.62.32.42.48 1.03.48 1.85v4h-1.07v-3.86c0-.6-.1-1.03-.28-1.29-.2-.27-.49-.4-.89-.4-.47 0-1 .32-1.58.97V56h-1.07v-3.86c0-.6-.1-1.03-.28-1.29-.2-.27-.5-.4-.9-.4-.48 0-1 .32-1.59.97V56H76.3zM87.06 56v-6.32h.89l.09.91h.04c.28-.3.58-.55.9-.75.33-.21.68-.31 1.06-.31.49 0 .86.1 1.13.32.28.2.48.5.61.88.33-.36.66-.65 1-.87.33-.22.7-.33 1.08-.33.65 0 1.13.2 1.45.62.32.42.48 1.03.48 1.85v4h-1.07v-3.86c0-.6-.1-1.03-.28-1.29-.2-.27-.49-.4-.89-.4-.47 0-1 .32-1.58.97V56H90.9v-3.86c0-.6-.1-1.03-.29-1.29-.19-.27-.49-.4-.9-.4-.47 0-1 .32-1.58.97V56h-1.07zM100.3 56.16a2.8 2.8 0 01-2.04-.86 3.31 3.31 0 01-.88-2.45c0-.52.07-1 .23-1.4.16-.42.38-.77.65-1.05a2.71 2.71 0 012.04-.87 2.8 2.8 0 012.68 1.92c.16.4.24.88.24 1.4 0 .52-.08 1-.24 1.4a2.75 2.75 0 01-1.57 1.68 2.8 2.8 0 01-1.11.23zm0-.89c.27 0 .52-.05.74-.17.23-.12.42-.28.57-.5.17-.2.3-.46.38-.76.09-.3.13-.62.13-.99 0-.36-.04-.69-.13-.98-.09-.3-.21-.57-.38-.78a1.55 1.55 0 00-.57-.5 1.54 1.54 0 00-.74-.18 1.67 1.67 0 00-1.33.68 2.5 2.5 0 00-.36.78c-.09.3-.13.62-.13.98 0 .37.04.7.13 1 .09.29.2.54.36.76.17.2.36.37.59.5.22.1.47.16.74.16zM107.68 56.16c-.3 0-.6-.07-.92-.21a3.6 3.6 0 01-.88-.6h-.04l-.1.65h-.85v-9.26h1.06v2.53l-.02 1.14c.28-.25.6-.46.93-.62a2.38 2.38 0 012.12-.03c.32.15.58.36.78.65.22.28.38.62.48 1.01a4.72 4.72 0 01-.05 2.76 3.3 3.3 0 01-.6 1.08c-.25.3-.54.52-.87.68-.33.14-.67.22-1.04.22zm-.18-.9c.26 0 .5-.06.72-.17.22-.12.41-.29.57-.5.16-.21.29-.48.38-.79a4.56 4.56 0 00.05-2 1.98 1.98 0 00-.3-.73c-.13-.2-.3-.37-.52-.48-.2-.11-.46-.17-.76-.17-.5 0-1.07.29-1.69.86v3.32a2.29 2.29 0 001.55.66zM112.08 56v-6.32h1.06V56h-1.06zm.54-7.62a.78.78 0 01-.53-.2.65.65 0 01-.21-.49c0-.2.07-.37.2-.5.16-.12.33-.19.54-.19.2 0 .38.07.52.2a.6.6 0 01.22.5c0 .2-.07.36-.22.49a.73.73 0 01-.52.2zM116.4 56.16c-.4 0-.7-.13-.87-.37-.17-.24-.26-.6-.26-1.06v-7.99h1.07v8.06c0 .18.03.3.1.37.05.07.12.1.2.1h.09c.03 0 .08 0 .14-.02l.15.8a.92.92 0 01-.25.08c-.1.02-.22.03-.36.03zM118.59 56v-6.32h1.06V56h-1.06zm.54-7.62a.78.78 0 01-.53-.2.65.65 0 01-.2-.49c0-.2.06-.37.2-.5.15-.12.33-.19.53-.19.21 0 .39.07.52.2a.6.6 0 01.22.5c0 .2-.07.36-.22.49a.73.73 0 01-.52.2zM124.35 56.16c-.43 0-.83-.08-1.2-.22a3.04 3.04 0 01-.96-.66 3.13 3.13 0 01-.64-1.04c-.15-.4-.23-.87-.23-1.39a3.4 3.4 0 01.87-2.44 2.74 2.74 0 013.03-.68c.32.14.58.34.8.6.2.26.37.57.49.94a4.15 4.15 0 01.13 1.83h-4.27c.05.68.25 1.21.63 1.61.38.4.87.59 1.48.59.3 0 .58-.05.83-.13.26-.1.5-.22.74-.37l.38.7a5.4 5.4 0 01-.93.46c-.33.13-.72.2-1.15.2zm-2-3.83h3.39c0-.64-.14-1.12-.42-1.45-.27-.34-.65-.5-1.14-.5-.23 0-.44.03-.65.12a2.09 2.09 0 00-.96 1c-.1.24-.18.52-.21.83zM128.24 56v-6.32h.88l.1.91h.03c.3-.3.62-.55.95-.75.34-.21.73-.31 1.17-.31.67 0 1.15.2 1.45.62.32.42.47 1.03.47 1.85v4h-1.06v-3.86c0-.6-.1-1.03-.29-1.29-.19-.27-.5-.4-.9-.4-.34 0-.63.08-.88.25-.25.16-.54.4-.86.72V56h-1.06zM135.34 56v-6.32h.89l.09.91h.04c.28-.3.58-.55.9-.75.33-.21.68-.31 1.06-.31.49 0 .87.1 1.13.32.28.2.48.5.61.88.33-.36.66-.65 1-.87.33-.22.7-.33 1.08-.33.65 0 1.14.2 1.45.62.32.42.48 1.03.48 1.85v4H143v-3.86c0-.6-.1-1.03-.28-1.29-.2-.27-.49-.4-.89-.4-.47 0-1 .32-1.58.97V56h-1.07v-3.86c0-.6-.1-1.03-.29-1.29-.19-.27-.48-.4-.9-.4-.47 0-1 .32-1.58.97V56h-1.06zM147.58 56.16c-.53 0-.97-.16-1.33-.47a1.7 1.7 0 01-.52-1.33c0-.7.31-1.22.93-1.58.61-.38 1.6-.64 2.95-.78 0-.2-.02-.4-.07-.59-.03-.19-.1-.36-.2-.5a1 1 0 00-.4-.36c-.16-.1-.37-.14-.63-.14-.37 0-.7.07-1.03.2-.32.15-.6.3-.86.48l-.41-.75c.3-.19.65-.37 1.08-.54.42-.18.89-.27 1.4-.27.77 0 1.33.23 1.68.71.34.47.52 1.1.52 1.89V56h-.89l-.09-.75h-.04c-.3.25-.63.46-.97.65-.35.17-.72.26-1.12.26zm.31-.86c.3 0 .6-.07.86-.21.27-.15.55-.36.86-.64V52.7c-.53.07-.98.15-1.34.24-.36.1-.65.21-.87.34-.22.13-.38.28-.48.46-.1.16-.15.34-.15.54 0 .37.11.63.33.78.22.16.48.24.8.24zM152.67 56v-9.26h1.06v6.27h.04l2.69-3.33h1.18l-2.12 2.54 2.4 3.78h-1.16l-1.85-3.04-1.18 1.38V56h-1.06zM160.24 56.16c-.4 0-.7-.13-.87-.37-.17-.24-.26-.6-.26-1.06v-7.99h1.07v8.06c0 .18.03.3.09.37s.13.1.2.1h.1c.03 0 .08 0 .14-.02l.14.8a.92.92 0 01-.24.08c-.1.02-.22.03-.37.03zM164.99 56.16c-.43 0-.83-.08-1.2-.22a3.05 3.05 0 01-.96-.66 3.15 3.15 0 01-.64-1.04c-.16-.4-.23-.87-.23-1.39a3.42 3.42 0 01.87-2.44 2.75 2.75 0 011.96-.88c.4 0 .75.07 1.07.2.32.14.58.34.79.6.22.26.38.57.5.94a4.11 4.11 0 01.12 1.83h-4.26c.04.68.25 1.21.62 1.61.38.4.88.59 1.49.59.3 0 .58-.05.83-.13.26-.1.5-.22.74-.37l.38.7c-.28.18-.59.33-.93.46-.34.13-.72.2-1.15.2zm-2-3.83h3.39c0-.64-.14-1.12-.42-1.45-.27-.34-.65-.5-1.14-.5-.23 0-.45.03-.65.12s-.38.22-.55.4c-.16.16-.3.36-.42.6-.1.24-.17.52-.2.83zM168.87 56v-6.32h.89l.09 1.15h.04c.21-.4.47-.72.78-.95a1.68 1.68 0 011.69-.22l-.21.93-.29-.08a1.44 1.44 0 00-1.17.3c-.28.22-.53.6-.75 1.13V56h-1.07z" fill="#1C3553"/></svg>
